# xmcd
#
# Track frame offsets:
#	150
#	15713
#	31092
#	46059
#	61195
#	76151
#	91241
#	106021
#	122726
#	139271
#	155934
#	170940
#
# Disc length: 2481 seconds
#
# Revision: 2
# Processed by: cddbd v1.5.2PL0 Copyright (c) Steve Scherf et al.
# Submitted via: MusicWizard 7.0.2
#
DISCID=9309af0c
DTITLE=Patrick Lindner - Heute Hier Und Jetzt
DYEAR=07
DGENRE=Schlager
TTITLE0=HEUTE HIER UND JETZT
TTITLE1=FEUER UND REGEN
TTITLE2=WER WEISS DAS SCHON
TTITLE3=JEDER TAG IST EIN GESCHENK
TTITLE4=IM KARUSSELL DER TRÄUME
TTITLE5=FÜR MICH BIST DU IMMER SCHÖN
TTITLE6=FÜR ALL DIE GROßEN KLEINEN LEUTE
TTITLE7=JEDE TRÄNE MACHT DICH STARK
TTITLE8=DER ZUG IST LÄNGST NICHT ABGEFAHRN
TTITLE9=DU BIST FÜR MICH DER GRÖSSTE
TTITLE10=DAS KLEINE GLÜCK IST ÜBERALL
TTITLE11=BELLA ITALIA
EXTD=YEAR: 07
EXTT0=
EXTT1=
EXTT2=
EXTT3=
EXTT4=
EXTT5=
EXTT6=
EXTT7=
EXTT8=
EXTT9=
EXTT10=
EXTT11=
PLAYORDER=
